<?xml version="1.0" encoding="utf-8"?>
<!DOCTYPE svg PUBLIC "-//W3C//DTD SVG 1.0//EN" "http://www.w3.org/TR/2001/REC-SVG-20010904/DTD/svg10.dtd">
<svg version="1.0" xmlns="http://www.w3.org/2000/svg" width="832px" height="832px" viewBox="0 0 832 832" preserveAspectRatio="xMidYMid meet">
 <g fill="#071013">
  <path d="M0 416 l0 -416 416 0 416 0 0 416 0 416 -416 0 -416 0 0 -416z m199.31 314.84 c2.11 -0.65 5.44 -2.28 7.47 -3.66 2.03 -1.38 26.65 -25.11 54.68 -52.65 28.03 -27.54 65.73 -64.59 83.85 -82.22 94.09 -91.73 124.64 -121.88 127.16 -125.53 3.33 -4.88 5.28 -11.86 5.28 -19.01 0 -7.07 -3.90 -82.39 -4.47 -86.78 -0.41 -2.76 -0.81 -3.49 -2.11 -3.49 -1.95 0 -1.95 -0.81 0.08 40.71 0.98 18.04 1.71 38.84 1.79 46.23 0.08 12.27 -0.08 13.81 -1.79 18.28 -2.36 6.18 -4.22 8.04 -72.31 74.59 -28.84 28.19 -65.97 64.59 -82.47 80.93 -79.79 78.89 -107.17 105.38 -110.74 107.33 -3.58 1.87 -4.55 2.03 -16.01 2.03 -11.70 0 -12.35 -0.08 -16.82 -2.28 -3.90 -1.95 -14.79 -12.43 -72.31 -70.04 -54.84 -55.01 -68.17 -68.74 -70.12 -72.47 -2.36 -4.47 -2.44 -4.96 -2.44 -15.68 0 -10.73 0.08 -11.13 2.60 -16.33 1.79 -3.66 4.39 -6.91 8.13 -10.48 9.02 -8.53 63.05 -60.37 76.21 -73.13 6.74 -6.50 24.21 -23.32 39 -37.38 14.71 -14.06 43.22 -41.52 63.38 -61.02 64.19 -62.08 67.93 -65.65 72.88 -68.98 2.68 -1.79 6.18 -3.66 7.80 -4.22 4.22 -1.38 111.23 -1.95 115.94 -0.57 5.04 1.46 9.51 5.28 23.56 20.15 7.15 7.56 13.65 13.81 14.46 13.81 1.95 0.08 -2.52 -5.12 -18.28 -21.21 -12.35 -12.59 -15.84 -15.03 -24.21 -16.82 -3.25 -0.73 -18.52 -0.98 -56.47 -0.73 l-52 0.24 -4.79 2.44 c-5.20 2.60 -10.56 7.31 -31.36 27.63 -7.39 7.15 -32.42 31.36 -55.58 53.63 -23.24 22.34 -52.08 50.13 -64.19 61.75 -12.02 11.62 -42.98 41.36 -68.66 66.06 -25.76 24.70 -47.61 46.23 -48.59 47.94 -2.92 4.88 -4.55 12.68 -4.14 19.83 0.73 12.19 -2.84 8.13 74.83 86.04 45.74 46.07 70.53 70.36 73.13 71.82 2.11 1.22 5.44 2.68 7.31 3.25 4.63 1.46 15.52 1.46 20.31 0z m-2.11 -16.82 c2.44 -1.22 17.23 -15.19 45.58 -43.14 23.08 -22.75 55.90 -54.92 72.88 -71.50 114.24 -111.64 140.97 -138.13 142.51 -141.38 0.98 -1.95 1.87 -5.12 2.19 -7.07 0.41 -3.17 -1.95 -60.61 -3.41 -84.18 l-0.57 -8.21 -3.74 0.32 c-6.42 0.57 -17.47 1.95 -19.34 2.44 -1.79 0.41 -1.87 0.81 -1.87 8.45 0 9.91 -1.06 14.95 -4.55 22.42 -7.07 14.95 -21.69 24.05 -40.14 25.19 -15.19 0.81 -28.92 -4.22 -38.27 -14.22 -9.02 -9.51 -12.11 -17.79 -12.11 -32.58 0 -15.68 3.49 -24.62 13.57 -34.29 9.75 -9.43 17.31 -12.11 34.04 -12.11 12.92 0 18.44 1.38 26.49 6.82 l5.36 3.66 4.39 -1.14 c2.36 -0.57 6.26 -1.30 8.69 -1.63 l4.39 -0.57 -11.29 -11.29 c-7.80 -7.80 -12.27 -11.70 -14.54 -12.59 -2.84 -1.06 -9.99 -1.14 -52.89 -0.98 l-49.64 0.24 -4.39 2.92 c-2.44 1.63 -10.81 9.10 -18.61 16.66 -37.21 35.75 -78.97 75.89 -100.34 96.61 -12.92 12.51 -47.13 45.42 -75.97 73.13 -28.84 27.63 -55.01 52.89 -58.09 56.06 -7.72 7.64 -9.26 12.68 -6.42 21.21 1.22 3.66 7.23 9.83 68.49 71.09 36.89 36.97 68.41 67.84 69.96 68.66 6.26 3.17 12.51 3.49 17.63 0.98z m586.71 -268.53 c-1.22 -0.16 -3.41 -0.16 -4.88 0 -1.46 0.16 -0.49 0.32 2.19 0.32 2.68 0 3.90 -0.16 2.68 -0.32z m-55.25 -6.34 c1.95 -1.63 3.33 -2.03 6.66 -2.03 l4.22 0 -0.57 -2.60 c-0.98 -4.96 -3.98 -9.91 -7.56 -12.59 -4.63 -3.49 -5.85 -3.41 -5.85 0.08 0 2.44 -0.41 3.01 -3.49 4.47 -1.87 0.89 -4.14 2.76 -4.96 4.14 -1.22 2.19 -1.30 2.92 -0.41 5.04 1.14 2.76 5.04 5.53 7.80 5.53 0.98 0 2.84 -0.89 4.14 -2.03z m-33.31 -0.16 c-0.24 -1.30 -2.11 -1.54 -20.15 -1.95 -20.23 -0.49 -22.67 -0.73 -38.59 -2.84 -52.24 -7.07 -94.01 -23.97 -125.94 -50.94 -7.88 -6.66 -16.66 -15.44 -22.26 -22.10 -2.44 -2.92 -2.52 -3.01 -1.14 -0.57 0.89 1.46 4.96 6.34 9.10 10.73 31.93 34.45 79.63 56.88 139.83 65.89 16.09 2.36 23.64 2.92 42.90 3.09 15.36 0.08 16.49 0 16.25 -1.30z m91.57 -5.85 c6.91 -3.17 12.51 -11.94 11.29 -17.55 -1.63 -7.39 -7.64 -13.73 -15.19 -15.93 -3.01 -0.81 -10.16 1.71 -13.98 5.04 -3.41 3.01 -6.09 8.45 -6.09 12.35 0 6.34 4.39 12.68 10.97 15.68 4.88 2.36 8.61 2.44 13 0.41z m-32.50 -2.28 c-0.32 -0.81 -0.81 -2.28 -0.98 -3.17 l-0.41 -1.71 -1.95 1.79 c-2.52 2.36 -1.87 4.47 1.46 4.47 2.03 0 2.36 -0.24 1.87 -1.38z m-360.51 -27.63 c5.12 -1.71 11.62 -6.09 15.52 -10.48 6.26 -7.15 10.48 -18.52 9.34 -25.43 -0.41 -2.68 -0.73 -3.01 -2.44 -2.68 -1.87 0.32 -1.95 0.65 -1.95 6.18 0 11.05 -4.14 19.58 -12.19 25.02 -15.60 10.64 -39.24 5.04 -47.21 -11.13 -1.79 -3.66 -1.95 -5.04 -1.95 -14.63 0 -9.91 0.16 -10.81 2.19 -14.71 2.52 -4.79 8.21 -10.16 13.57 -12.76 3.33 -1.54 5.12 -1.79 15.68 -1.87 6.58 0 12.27 -0.24 12.51 -0.57 0.32 -0.32 -0.81 -1.22 -2.60 -1.95 -2.36 -1.06 -5.28 -1.46 -11.29 -1.46 -7.64 0 -8.53 0.16 -13.73 2.76 -13 6.42 -22.10 21.29 -20.48 33.56 2.19 16.17 15.76 29.33 32.58 31.44 5.28 0.73 6.99 0.49 12.43 -1.30z m425.91 -0.57 c0 -1.30 -3.09 -5.36 -4.14 -5.36 -0.41 0 0.08 1.63 1.06 3.66 1.63 3.33 3.09 4.14 3.09 1.71z m-413.56 -48.75 c12.68 -3.74 30.39 -6.34 54.19 -7.88 12.43 -0.81 25.59 -0.81 65 -0.08 42.74 0.89 51.51 0.89 64.84 -0.16 33.80 -2.68 65.65 -9.83 98.07 -21.94 9.43 -3.58 28.92 -13.81 40.87 -21.53 20.39 -13.16 40.79 -34.69 49.97 -52.81 19.17 -38.19 9.59 -81.66 -23.97 -108.71 -20.56 -16.49 -48.51 -24.54 -77.76 -22.26 -21.04 1.71 -40.63 6.74 -62.72 16.25 -68.25 29.33 -128.54 95.14 -144.30 157.38 -3.98 15.44 -4.88 36.08 -1.63 36.08 1.22 0 1.46 -1.38 1.87 -11.38 1.95 -42.41 23.81 -85.31 63.21 -124.07 11.86 -11.70 19.66 -18.28 32.42 -27.38 30.96 -22.18 63.54 -36.16 95.06 -40.63 14.14 -2.03 39.65 -2.52 48.42 -0.98 21.53 3.74 37.86 11.94 51.92 26.08 15.52 15.60 23.16 35.10 23.16 58.91 0 33.56 -16.01 61.59 -49.16 86.13 -27.79 20.56 -68.82 36.16 -112.37 42.66 -27.06 3.98 -28.36 4.06 -101.72 4.06 -60.29 0.08 -70.93 0.24 -80.84 1.46 -15.44 1.87 -22.67 3.41 -33.56 7.23 -10.48 3.58 -15.11 5.69 -17.79 8.21 -3.25 2.92 -2.03 3.01 4.06 0.16 3.17 -1.46 8.94 -3.66 12.76 -4.79z"/>
 </g>
 <g fill="#cea836">
  <path d="M176.56 733.28 c-1.87 -0.57 -5.20 -2.03 -7.31 -3.25 -2.60 -1.46 -27.38 -25.76 -73.13 -71.82 -79.54 -79.87 -74.34 -73.69 -74.83 -88.64 -0.32 -9.59 0.98 -16.82 4.14 -22.10 0.98 -1.71 22.83 -23.24 48.59 -47.94 25.67 -24.70 56.63 -54.44 68.66 -66.06 12.11 -11.62 40.95 -39.41 64.19 -61.75 23.16 -22.26 48.18 -46.47 55.58 -53.63 20.80 -20.31 26.16 -25.02 31.36 -27.63 l4.79 -2.44 54.44 -0.24 c58.01 -0.32 59.64 -0.16 67.44 3.66 6.34 3.17 36.97 34.94 36.97 38.43 0 1.46 -0.49 1.63 -4.63 1.54 l-4.71 -0.08 -13 -13.73 c-14.06 -14.87 -18.52 -18.69 -23.56 -20.23 -4.71 -1.30 -106.84 -0.73 -111.07 0.65 -1.63 0.57 -5.12 2.44 -7.80 4.22 -4.96 3.33 -8.69 6.91 -72.88 68.98 -20.15 19.50 -48.67 46.96 -63.38 61.02 -14.79 14.06 -32.26 30.88 -39 37.38 -13.16 12.76 -67.19 64.59 -76.21 73.13 -3.74 3.58 -6.34 6.82 -8.13 10.48 -2.44 4.96 -2.60 5.85 -2.60 13.89 0 8.04 0.16 8.94 2.44 13.24 1.95 3.74 15.27 17.47 70.12 72.47 57.53 57.61 68.41 68.09 72.31 70.04 4.31 2.11 5.36 2.28 14.38 2.28 8.86 0 10.07 -0.16 13.57 -2.03 3.58 -1.95 30.96 -28.44 110.74 -107.33 16.49 -16.33 53.63 -52.73 82.47 -80.93 68.25 -66.71 69.96 -68.41 72.31 -74.59 1.54 -4.22 1.79 -6.34 1.79 -15.44 -0.08 -10.73 -3.01 -74.34 -3.82 -84.26 l-0.49 -5.53 4.47 0 4.47 0 0.49 3.49 c0.65 5.20 4.47 80.36 4.47 89.21 0 9.51 -1.63 16.09 -5.28 21.45 -2.52 3.66 -33.07 33.80 -127.16 125.53 -18.12 17.63 -55.82 54.68 -83.85 82.22 -28.03 27.54 -52.65 51.27 -54.68 52.65 -2.03 1.38 -5.36 3.01 -7.47 3.66 -4.88 1.54 -20.48 1.54 -25.19 0z"/>
  <path d="M178.75 707.20 c-3.33 -1.38 -127.48 -125.37 -131.30 -131.06 -2.19 -3.33 -2.36 -4.22 -2.36 -10.97 0 -6.09 0.32 -8.04 1.87 -11.05 1.30 -2.44 9.10 -10.73 22.75 -24.13 11.46 -11.29 20.39 -20.56 19.83 -20.56 -2.84 0 -7.31 4.39 79.46 -79.22 33.07 -31.85 84.01 -80.93 110.50 -106.36 7.80 -7.56 16.17 -15.03 18.61 -16.66 l4.39 -2.92 52.08 -0.24 c45.91 -0.16 52.49 -0.08 55.49 1.06 4.39 1.71 29.58 27.06 27.79 28.03 -0.65 0.32 -3.33 0.89 -6.01 1.14 -2.68 0.32 -6.91 1.14 -9.43 1.79 -6.91 1.71 -8.29 1.46 -14.30 -2.52 -7.64 -5.12 -13.81 -6.91 -24.13 -6.91 -14.06 0 -22.42 3.17 -31.61 12.11 -9.43 9.10 -13.57 18.85 -13.57 31.85 0 12.19 3.66 21.21 12.11 30.14 6.18 6.58 14.87 11.29 24.46 13.32 19.34 4.06 40.54 -6.42 49.08 -24.29 3.58 -7.47 4.88 -14.14 4.39 -23.24 l-0.32 -7.31 4.88 -0.81 c5.77 -0.98 24.86 -2.84 25.27 -2.36 0.32 0.32 1.87 28.76 2.52 46.31 0.57 14.46 0.57 14.46 -1.14 14.46 -1.46 0 -1.79 -0.49 -1.79 -2.52 0 -3.01 -1.71 -2.84 -2.52 0.32 -0.32 1.22 -0.73 10.16 -0.89 19.91 -0.32 16.09 -0.49 18.12 -2.11 21.37 -1.71 3.49 -24.29 26.41 -94.41 95.39 -14.06 13.89 -52.49 51.76 -85.31 84.18 -67.60 66.71 -72.23 71.09 -75.16 72.23 -3.25 1.22 -15.76 0.98 -19.09 -0.49z m271.21 -338.33 l5.04 0 0 -4.06 0 -4.06 -3.01 0 c-3.66 0 -18.12 2.19 -18.69 2.76 -0.24 0.24 -0.16 1.79 0.16 3.41 l0.49 3.01 5.44 -0.57 c3.01 -0.24 7.72 -0.49 10.56 -0.49z"/>
  <path d="M718.90 442.73 c-3.58 -1.87 -5.53 -5.12 -5.53 -9.26 0 -4.14 2.19 -7.47 6.26 -9.43 3.90 -1.87 4.39 -2.84 1.71 -3.49 -1.06 -0.24 0.57 -0.24 3.58 0 7.15 0.49 10.07 2.19 11.62 6.74 1.63 4.71 1.54 10.73 -0.08 12.76 -0.65 0.81 -1.06 1.06 -0.73 0.57 0.73 -1.54 -2.44 -1.30 -3.74 0.32 -1.38 1.63 -5.77 3.49 -8.21 3.49 -1.06 -0.08 -3.25 -0.81 -4.88 -1.71z"/>
  <path d="M773.99 429.81 c-2.92 -0.49 -4.79 -1.46 -6.74 -3.41 -2.28 -2.36 -2.76 -3.49 -3.33 -8.29 -0.41 -3.01 -1.22 -5.77 -1.79 -6.18 -1.71 -1.06 -0.24 -4.55 3.49 -8.45 4.39 -4.55 11.46 -7.31 16.98 -6.74 13.16 1.54 21.77 15.52 17.14 27.79 l-1.54 4.06 -4.39 0.49 c-10.07 1.22 -16.09 1.38 -19.83 0.73z"/>
  <path d="M379.03 407.06 c-13.65 -1.87 -25.92 -11.38 -30.47 -23.32 -2.28 -5.93 -3.01 -15.68 -1.63 -21.45 2.52 -10.97 9.91 -20.23 19.91 -25.19 5.04 -2.44 6.18 -2.68 14.95 -3.01 8.21 -0.24 10.07 -0.08 14.06 1.46 2.52 0.89 5.44 2.44 6.50 3.25 l1.87 1.54 -4.79 2.19 c-4.47 2.03 -4.96 2.11 -9.02 1.14 -5.61 -1.38 -14.38 -0.65 -19.17 1.54 -5.20 2.36 -10.97 7.72 -13.57 12.59 -1.95 3.66 -2.19 5.04 -2.19 12.27 0 6.99 0.24 8.69 1.95 12.19 5.85 11.86 20.31 18.61 32.74 15.44 5.85 -1.46 12.59 -5.61 15.60 -9.59 4.31 -5.61 5.77 -10.16 5.77 -18.04 0.08 -8.04 0.24 -8.29 6.66 -8.45 2.52 -0.08 2.60 0 3.17 4.47 1.63 13.24 -5.61 28.27 -17.14 35.67 -7.96 5.04 -15.52 6.66 -25.19 5.28z"/>
  <path d="M384.31 364 c-1.79 -3.25 1.38 -7.96 7.31 -10.97 5.69 -2.84 21.45 -8.21 28.92 -9.67 18.93 -3.82 25.35 -4.06 98.64 -4.14 73.29 0 74.75 -0.08 101.72 -4.06 29.09 -4.39 61.91 -14.30 84.09 -25.43 25.67 -13 46.64 -29.90 59.96 -48.51 25.11 -35.10 22.75 -80.19 -5.69 -108.88 -14.06 -14.14 -30.47 -22.42 -51.92 -26.08 -8.61 -1.54 -29.17 -1.06 -43.55 0.98 -31.28 4.39 -64.11 18.44 -95.06 40.63 -12.76 9.10 -20.56 15.68 -32.42 27.38 -39.41 38.76 -61.26 81.66 -63.21 124.07 l-0.49 11.38 -3.82 0 -3.82 0 -0.57 -6.26 c-0.73 -8.69 0.81 -23.97 3.58 -34.69 12.51 -49.64 54.19 -103.11 106.84 -137.15 45.34 -29.33 94.57 -42.17 134.71 -35.18 24.54 4.31 46.07 16.01 60.69 32.99 14.14 16.49 21.29 35.99 21.37 58.42 0.08 27.22 -9.83 49.64 -31.85 72.47 -9.59 9.99 -17.88 16.90 -28.11 23.48 -11.94 7.72 -31.44 17.96 -40.87 21.53 -32.58 12.19 -64.27 19.26 -98.47 21.94 -13.89 1.06 -22.10 1.14 -66.22 0.24 -39.41 -0.81 -53.38 -0.81 -64.19 0 -33.64 2.36 -54.11 6.58 -69.31 14.22 -6.74 3.41 -7.15 3.49 -8.29 1.30z"/>
 </g>
 <g fill="#d6a04a">
  <path d="M182.41 717.52 c-1.30 -0.32 -3.74 -1.30 -5.28 -2.03 -1.54 -0.81 -33.07 -31.69 -69.96 -68.66 -74.26 -74.18 -69.79 -69.14 -69.79 -79.95 0 -7.96 1.30 -10.89 7.72 -17.23 16.74 -16.82 45.17 -43.55 45.74 -43.14 0.41 0.24 1.79 -0.73 3.09 -2.19 l2.36 -2.60 -2.84 2.44 -2.84 2.44 2.36 -2.60 c1.30 -1.46 2.60 -2.52 2.92 -2.44 0.32 0.08 3.41 -2.52 6.82 -5.69 3.49 -3.25 6.50 -5.93 6.74 -5.93 0.24 0 1.54 -0.89 2.84 -2.03 1.38 -1.14 2.60 -1.95 2.84 -1.79 1.63 1.63 -3.66 7.47 -32.26 35.67 -21.61 21.37 -32.09 32.26 -33.39 34.78 -2.84 5.53 -2.68 12.43 0.41 17.14 1.30 1.95 30.79 32.01 65.41 66.71 44.69 44.77 63.94 63.54 66.06 64.43 3.49 1.38 10.89 1.63 14.06 0.41 2.92 -1.14 7.56 -5.53 75.16 -72.23 32.83 -32.42 71.26 -70.28 85.31 -84.18 68.49 -67.44 92.71 -91.89 94.33 -95.22 1.46 -3.01 1.71 -5.36 1.95 -20.31 0.41 -19.26 0.81 -22.91 2.68 -23.56 0.81 -0.24 1.95 -0.98 2.68 -1.63 1.06 -0.89 1.38 -0.81 2.11 0.73 2.03 4.39 2.68 11.13 2.92 28.68 0.16 18.12 0.08 18.77 -1.71 22.51 -1.87 3.74 -24.62 26.33 -142.76 141.78 -16.98 16.58 -49.81 48.75 -72.88 71.50 -28.36 27.95 -43.14 41.92 -45.58 43.14 -3.74 1.87 -11.86 2.36 -17.23 1.06z"/>
  <path d="M716.71 452.32 c-4.06 -1.54 -9.02 -6.09 -10.73 -9.83 -1.79 -3.98 -2.03 -12.35 -0.49 -16.17 1.54 -3.58 7.07 -8.37 10.89 -9.43 11.29 -3.17 21.21 2.03 24.29 12.68 1.71 5.77 1.14 10.48 -1.63 15.27 -3.25 5.53 -7.64 8.04 -14.22 8.29 -2.92 0.08 -6.58 -0.24 -8.13 -0.81z m15.11 -6.66 c3.82 -3.25 5.04 -6.09 2.68 -6.09 -1.46 0 -1.46 -0.08 -0.16 -2.36 1.22 -2.19 1.22 -2.68 -0.08 -6.74 -1.46 -4.63 -3.33 -6.26 -7.88 -6.91 -1.14 -0.16 -2.44 -0.81 -2.92 -1.46 -1.71 -2.28 -6.82 -1.14 -11.21 2.60 -1.38 1.14 -2.52 2.52 -2.52 3.01 -0.08 0.49 -0.41 2.19 -0.73 3.82 -1.30 5.85 2.19 12.92 7.80 15.60 1.46 0.73 4.71 1.38 7.23 1.38 3.98 0 4.88 -0.32 7.80 -2.84z"/>
  <path d="M771.47 435.17 c-9.02 -4.14 -13.41 -13.98 -10.64 -23.64 1.22 -4.14 2.92 -6.09 2.92 -3.33 0 0.65 0.41 1.30 0.98 1.46 0.49 0.16 1.22 2.84 1.54 5.93 0.65 4.88 1.06 6.01 3.41 8.29 3.17 3.25 9.99 4.71 15.52 3.49 1.87 -0.41 5.28 -0.89 7.64 -1.14 2.44 -0.24 4.88 -0.81 5.44 -1.30 0.89 -0.73 0.98 -0.49 0.65 0.98 -0.65 2.68 -5.85 7.88 -9.59 9.67 -4.79 2.19 -12.68 2.03 -17.88 -0.41z"/>
  <path d="M754.81 435.50 c0 -0.41 -1.63 -0.81 -3.58 -0.81 -3.82 0 -3.90 0 -4.96 -5.36 -0.41 -2.11 -0.16 -2.60 1.54 -3.33 1.87 -0.89 1.95 -1.22 1.54 -6.26 -0.41 -4.63 -0.24 -5.44 0.98 -5.85 1.79 -0.73 3.66 1.54 3.66 4.55 0 1.95 1.87 7.80 4.06 12.35 0.98 2.03 0.89 2.44 -0.81 3.90 -2.11 1.87 -2.44 1.95 -2.44 0.81z"/>
  <path d="M816.56 409.17 c0 -0.65 -1.46 -3.98 -3.17 -7.39 -3.01 -5.69 -3.09 -6.18 -1.71 -6.91 3.82 -2.03 8.29 -0.08 10.24 4.47 1.30 3.17 0.73 5.85 -1.95 8.77 -2.36 2.44 -3.41 2.76 -3.41 1.06z"/>
  <path d="M431.19 370.42 c-0.32 -1.06 -0.57 -3.66 -0.57 -5.77 0 -3.49 0.16 -3.82 2.28 -4.22 4.39 -0.81 14.46 -2.03 19.26 -2.28 l4.88 -0.24 0.24 6.74 0.24 6.66 -3.90 0 c-2.11 0 -7.96 0.24 -12.92 0.49 -9.02 0.57 -9.02 0.57 -9.51 -1.38z"/>
 </g>
 <g fill="#c99042">
  <path d="M462.56 448.09 c0 -2.19 0.16 -3.09 0.32 -1.79 0.16 1.22 0.16 3.01 0 4.06 -0.16 0.98 -0.32 0 -0.32 -2.28z"/>
  <path d="M771.47 447.36 c-5.44 -1.71 -9.59 -4.22 -13.16 -7.88 -1.95 -1.95 -3.49 -3.82 -3.49 -4.14 0 -0.32 -0.65 -0.65 -1.38 -0.65 -1.38 -0.08 -1.38 -0.16 0 -1.14 0.81 -0.65 1.14 -1.38 0.73 -1.63 -0.41 -0.24 -0.98 -1.95 -1.30 -3.74 -0.24 -1.79 -0.89 -3.25 -1.30 -3.25 -0.49 0 -0.65 -1.46 -0.49 -3.17 0.16 -1.87 -0.16 -3.90 -0.73 -4.71 -2.19 -3.09 1.54 -13.98 6.91 -20.07 5.93 -6.66 16.41 -10.81 25.59 -9.99 11.29 0.98 19.74 6.82 24.94 17.39 2.52 5.12 2.68 6.09 2.68 13.65 0 7.31 -0.24 8.53 -2.28 12.51 -3.74 7.31 -8.21 11.86 -14.54 15.11 -5.20 2.60 -6.34 2.84 -12.35 2.76 -3.58 0 -8.04 -0.49 -9.83 -1.06z m17.71 -5.85 c5.20 -1.79 11.38 -7.47 14.14 -13.16 3.01 -6.09 3.25 -15.52 0.49 -21.37 -2.44 -5.36 -6.99 -10.07 -12.27 -12.68 -10.07 -4.96 -24.05 -1.71 -31.04 7.15 -4.14 5.28 -5.93 10.73 -5.53 17.39 0.08 2.92 -0.08 5.28 -0.49 5.28 -0.65 0 0 6.50 0.81 7.23 0.24 0.24 0.73 -0.08 1.14 -0.73 0.41 -0.65 0.81 -0.98 0.98 -0.81 3.98 5.36 5.36 6.91 7.96 8.61 1.79 1.22 4.55 2.60 6.26 3.25 4.22 1.46 13 1.38 17.55 -0.16z"/>
  <path d="M652.84 442 c-34.78 -2.92 -73.94 -13.16 -101.72 -26.73 -22.10 -10.81 -37.46 -21.69 -53.95 -38.35 -14.46 -14.54 -17.71 -20.88 -11.13 -21.69 1.71 -0.24 2.84 0.73 6.18 4.88 5.28 6.74 15.76 16.66 25.84 24.70 30.71 24.46 71.26 40.22 120.98 46.96 15.93 2.11 18.36 2.36 38.59 2.84 l19.91 0.49 0.49 3.25 c0.32 1.79 0.41 3.49 0.16 3.90 -0.41 0.73 -35.51 0.57 -45.34 -0.24z"/>
  <path d="M734.01 437.77 c0.73 -0.98 1.30 -3.41 1.30 -5.28 0 -1.95 0.41 -3.49 0.81 -3.49 0.49 0 0.81 2.28 0.81 5.28 0 5.12 -0.08 5.28 -2.11 5.28 -1.95 0 -1.95 -0.08 -0.81 -1.79z"/>
  <path d="M706.47 436.31 c0.24 -0.41 0.08 -0.81 -0.32 -0.81 -1.14 0 -1.14 -4.31 0.08 -8.21 0.98 -3.33 3.90 -5.53 6.58 -4.96 1.30 0.24 1.22 0.57 -0.57 2.84 -1.14 1.46 -2.60 3.25 -3.33 4.06 -0.65 0.73 -1.22 2.84 -1.22 4.63 0 1.79 -0.41 3.25 -0.89 3.25 -0.41 0 -0.57 -0.32 -0.32 -0.81z"/>
 </g>
</svg>